<?xml version="1.0" standalone="no"?>
<!DOCTYPE svg PUBLIC "-//W3C//DTD SVG 20010904//EN"
 "http://www.w3.org/TR/2001/REC-SVG-20010904/DTD/svg10.dtd">
<svg version="1.0" xmlns="http://www.w3.org/2000/svg"
 width="1080.000000pt" height="1080.000000pt" viewBox="0 0 1080.000000 1080.000000"
 preserveAspectRatio="xMidYMid meet">
<metadata>
Created by potrace 1.13, written by Peter Selinger 2001-2015
</metadata>
<g transform="translate(0.000000,1080.000000) scale(0.100000,-0.100000)"
fill="#000000" stroke="none">
<path d="M5242 7655 c-174 -32 -356 -113 -490 -221 -152 -122 -267 -301 -318
-500 -34 -133 -44 -363 -20 -506 27 -166 94 -347 167 -455 110 -162 225 -279
524 -535 348 -297 475 -438 574 -635 69 -139 103 -324 82 -449 -18 -103 -54
-162 -121 -197 -50 -26 -62 -28 -128 -24 -60 3 -80 9 -115 33 -119 84 -172
246 -184 567 -3 86 -10 157 -14 157 -4 0 -183 -34 -397 -75 -214 -41 -393 -75
-397 -75 -13 0 2 -157 25 -270 87 -427 322 -744 650 -874 128 -51 216 -68 382
-73 233 -8 387 21 553 105 384 193 564 525 526 973 -43 504 -269 858 -862
1351 -313 260 -416 389 -470 584 -28 104 -24 270 10 357 49 126 162 193 280
169 99 -21 154 -85 193 -228 17 -64 21 -109 22 -235 1 -133 3 -155 16 -153 8
2 182 26 385 54 204 28 383 53 399 56 l29 6 -6 137 c-8 208 -54 355 -164 519
-147 221 -383 387 -624 437 -89 19 -403 19 -507 0z"/>
<path d="M2260 5601 l0 -2001 403 0 402 0 -3 854 -2 854 107 7 c225 13 377 42
511 96 297 118 451 336 518 734 26 151 24 501 -4 655 -83 455 -302 696 -705
776 -68 14 -180 17 -654 21 l-573 5 0 -2001z m998 1398 c81 -27 114 -56 152
-133 42 -85 54 -207 47 -496 -6 -283 -19 -340 -95 -411 -56 -54 -92 -67 -209
-76 l-83 -6 0 578 0 578 63 -7 c34 -3 90 -16 125 -27z"/>
<path d="M6880 5600 l0 -2000 400 0 400 0 0 895 0 895 305 0 305 0 0 280 0
280 -305 0 -305 0 0 550 0 550 430 0 430 0 0 275 0 275 -830 0 -830 0 0 -2000z"/>
<path d="M4278 3111 c-32 -11 -80 -33 -108 -51 l-50 -32 21 -41 c12 -23 23
-43 24 -45 1 -1 25 13 53 32 94 63 192 70 253 19 28 -24 31 -31 27 -73 -6 -62
-28 -92 -212 -290 -148 -160 -156 -170 -156 -209 l0 -41 265 0 265 0 0 50 0
50 -180 0 c-108 0 -180 4 -180 10 0 5 55 68 123 139 175 186 221 271 197 359
-31 117 -187 172 -342 123z"/>
<path d="M4995 3115 c-27 -8 -53 -14 -56 -15 -19 -1 -103 -89 -124 -129 -74
-147 -53 -397 43 -503 57 -63 102 -81 214 -86 86 -4 102 -2 150 20 119 55 168
144 175 323 9 205 -48 325 -181 380 -55 23 -161 28 -221 10z m187 -101 c69
-36 103 -140 96 -295 -9 -175 -66 -249 -193 -249 -120 0 -178 71 -192 235 -11
134 28 266 91 305 50 32 141 33 198 4z"/>
<path d="M5480 3075 l0 -55 75 0 76 0 -3 -320 -3 -320 60 0 60 0 -3 374 -2
374 -130 1 -130 2 0 -56z"/>
<path d="M6157 3116 c-125 -47 -195 -142 -218 -300 -14 -90 -1 -200 32 -277
23 -53 92 -123 143 -144 91 -38 217 -26 289 29 66 50 92 106 91 196 0 136 -73
221 -204 237 -79 9 -146 -13 -198 -65 l-45 -44 5 65 c7 86 39 151 91 185 55
37 159 43 235 14 l52 -20 21 40 c11 22 17 44 12 48 -41 37 -240 61 -306 36z
m164 -371 c60 -32 83 -106 55 -180 -23 -60 -70 -88 -145 -88 -96 0 -149 42
-158 127 -15 125 125 204 248 141z"/>
</g>
</svg>
